<?xml version="1.0" standalone="no"?>
<!DOCTYPE svg PUBLIC "-//W3C//DTD SVG 1.1//EN" "http://www.w3.org/Graphics/SVG/1.1/DTD/svg11.dtd">
<svg xmlns="http://www.w3.org/2000/svg" width="200" height="200" viewBox="0 0 200 200"><path fill-rule="evenodd" d="M22.5 5.773C15.375 8.123 7.679 15.975 5.583 23.034 3.662 29.5 3.588 33.978 5.291 40.532 6.567 45.439 31.032 98.958 32 98.958s25.433-53.519 26.709-58.426c2.926-11.258.618-20.335-7.144-28.097C43.543 4.413 33.56 2.124 22.5 5.773m3.373 15.911c-7.775 4.825-7.684 16.043.167 20.68C33.781 46.937 44 41.04 44 32c0-9.061-10.511-15.043-18.127-10.316M156.5 88.871c-16.922 4.427-27.185 21.04-23.609 38.214 1.012 4.859 29.894 67.883 31.109 67.883s30.097-63.025 31.11-67.888c1.433-6.884.613-13.827-2.412-20.407-3.459-7.523-7.007-11.207-14.206-14.752-6.755-3.325-16.025-4.611-21.992-3.05M37.757 97.384l-1.614 3.384 6.179 1.167c8.727 1.649 25.283 6.831 30.875 9.665 6.155 3.119 11.247 7.643 12.787 11.362.827 1.995 1.034 5.691.632 11.254-1.985 27.442-1.997 26.365.346 31.205 4.223 8.724 15.783 16.649 31.242 21.418 7.46 2.301 27.41 6.598 35.619 7.672l5.324.697-2.086-4.088c-1.263-2.477-2.967-4.277-4.323-4.568-1.231-.263-6.063-1.197-10.738-2.075-21.66-4.068-38.094-10.518-44.3-17.388-5.256-5.817-6.084-10.036-4.231-21.551 2.185-13.58 1.982-20.028-.82-26.045C87.748 108.97 74.72 101.511 51.5 95.935c-10.991-2.639-11.836-2.55-13.743 1.449m120.743 9.521c-1.1.488-3.35 2.314-5 4.057-2.631 2.779-3 3.89-3 9.023 0 4.864.423 6.306 2.5 8.529 5.346 5.722 11.966 7.024 17.759 3.491 8.714-5.313 9.563-15.711 1.869-22.899-2.792-2.607-10.503-3.809-14.128-2.201"/></svg>